<?xml version="1.0" encoding="UTF-8"?>
<svg xmlns="http://www.w3.org/2000/svg" xmlns:xlink="http://www.w3.org/1999/xlink" viewBox="0 0 30 30" width="30px" height="30px">
  <g id="surface2774289">
    <rect x="0" y="0" width="30" height="30" style="fill:#02045E;fill-opacity:1;stroke:none;" />
    <path style=" stroke:none;fill-rule:nonzero;fill:rgb(100%,100%,100%);fill-opacity:1;" d="M 0.886719 -3.523438 C -1.546875 -3.523438 -3.523438 -1.546875 -3.523438 0.886719 L -3.523438 29.113281 C -3.523438 31.546875 -1.546875 33.523438 0.886719 33.523438 L 29.113281 33.523438 C 31.546875 33.523438 33.523438 31.546875 33.523438 29.113281 L 33.523438 0.886719 C 33.523438 -1.546875 31.546875 -3.523438 29.113281 -3.523438 Z M 10.589844 3.535156 L 15 3.535156 C 18.898438 3.535156 22.085938 6.738281 22.054688 10.644531 C 22.046875 11.597656 22.867188 12.355469 23.820312 12.355469 L 24.703125 12.355469 C 25.675781 12.355469 26.464844 13.144531 26.464844 14.117188 L 26.464844 19.410156 C 26.464844 23.289062 23.289062 26.464844 19.410156 26.464844 L 10.589844 26.464844 C 6.710938 26.464844 3.535156 23.289062 3.535156 19.410156 L 3.535156 10.589844 C 3.535156 6.710938 6.710938 3.535156 10.589844 3.535156 Z M 10.589844 8.824219 C 9.621094 8.824219 8.824219 9.621094 8.824219 10.589844 C 8.824219 11.558594 9.621094 12.355469 10.589844 12.355469 L 15 12.355469 C 15.96875 12.355469 16.765625 11.558594 16.765625 10.589844 C 16.765625 9.621094 15.96875 8.824219 15 8.824219 Z M 10.589844 17.644531 C 9.621094 17.644531 8.824219 18.441406 8.824219 19.410156 C 8.824219 20.378906 9.621094 21.175781 10.589844 21.175781 L 19.410156 21.175781 C 20.378906 21.175781 21.175781 20.378906 21.175781 19.410156 C 21.175781 18.441406 20.378906 17.644531 19.410156 17.644531 Z M 10.589844 17.644531 " />
  </g>
</svg>